<svg width="44" height="70" viewBox="0 0 44 70" fill="none" xmlns="http://www.w3.org/2000/svg">
<path d="M22.8403 35.8876C22.8403 35.8876 14.1356 25.4283 13.4986 20C12.9315 20.8322 12.3644 21.6304 11.8051 22.3945C12.4382 27.2364 21.3099 38.0778 21.8032 38.7738C23.3064 40.7257 24.2037 42.1556 24.2037 43.1051C24.2037 44.3912 23.1277 45.4391 21.8071 45.4391C20.4864 45.4391 19.4105 44.3912 19.4105 43.1051C19.4105 42.5377 19.7368 41.8001 20.2534 40.9565C19.8999 40.4534 19.3134 39.6931 18.587 38.7474C17.4878 40.3361 16.7769 41.766 16.7769 43.1051C16.7769 45.806 19.0337 48 21.8032 48C24.5766 48 26.8294 45.806 26.8294 43.1051C26.8294 41.1948 25.4855 39.1748 22.8403 35.8876Z" fill="url(#paint0_linear_404_67)"/>
<path d="M28.1184 33.1297C26.5899 31.3441 19.016 22.4537 17.2375 15C16.6527 15.9978 16.0397 16.9694 15.4186 17.911C16.2857 23.4478 24.9202 33.4711 25.9849 34.7127C28.4289 37.5599 30.5382 40.0207 30.5382 43.018C30.5382 47.1218 26.9488 50.4604 22.5368 50.4604C18.1247 50.4604 14.5354 47.1218 14.5354 43.018C14.5354 40.6884 15.8098 38.6853 17.5278 36.5696C16.9995 35.8831 16.447 35.1516 15.8904 34.3826C13.6763 37.0272 11.8051 39.6644 11.8051 43.018C11.8051 48.521 16.6204 53 22.5368 53C28.4531 53 33.2685 48.521 33.2685 43.018C33.2685 39.1354 30.768 36.217 28.1184 33.1297Z" fill="url(#paint1_linear_404_67)"/>
<path d="M31.4751 29.6182C24.4276 21.2217 20.8192 14.9827 19.6384 9L18.1439 12.2017C18.982 16.0729 20.4889 18.8003 22.0082 21.39C24.2336 25.3606 26.8924 28.4476 29.287 31.2286C32.9532 35.4861 35.8432 38.8447 35.8432 43.5918C35.8432 50.6609 29.6338 56.4141 22.0041 56.4141C14.3745 56.4141 8.16504 50.6609 8.16504 43.5918C8.16504 39.3343 10.4936 36.1938 13.6148 32.5177C13.0905 31.7335 12.5826 30.9264 12.1037 30.1116C8.44578 34.3691 5.36584 38.1485 5.36584 43.588C5.36584 52.0839 12.8262 59 22 59C31.1737 59 38.6341 52.0878 38.6341 43.588C38.6424 37.9458 35.2611 34.132 31.4751 29.6182Z" fill="url(#paint2_linear_404_67)"/>
<path d="M35.0182 25.6222C30.0482 19.5541 23.0397 9.93763 22 0C21.7961 1.9577 21.3558 3.90393 20.7483 5.81575C22.8807 14.8204 28.9025 22.4027 32.8328 27.2013C37.3462 32.7112 41.2398 37.4678 41.2398 43.3677C41.2398 53.3168 32.6086 61.4114 22 61.4114C11.3914 61.4114 2.76019 53.3168 2.76019 43.3677C2.76019 37.5634 6.52743 32.868 10.9429 27.4766C10.4822 26.5169 10.0867 25.5572 9.78911 24.628C9.51594 24.9683 9.24685 25.301 8.98184 25.6222C4.36249 31.2582 0 36.5845 0 43.3677C0 54.743 9.87065 64 22 64C34.1294 64 44 54.743 44 43.3677C43.9959 36.5845 39.6334 31.2582 35.0182 25.6222Z" fill="url(#paint3_linear_404_67)"/>
<defs>
<linearGradient id="paint0_linear_404_67" x1="-6.45245" y1="94.7847" x2="50.8316" y2="-49.4887" gradientUnits="userSpaceOnUse">
<stop offset="0.00763584" stop-color="#6EC8FB"/>
<stop offset="0.455" stop-color="#6EC8FB"/>
<stop offset="1" stop-color="#6EC8FB"/>
</linearGradient>
<linearGradient id="paint1_linear_404_67" x1="-3.70894" y1="95.4407" x2="51.2038" y2="-49.361" gradientUnits="userSpaceOnUse">
<stop offset="0.00763584" stop-color="#6EC8FB"/>
<stop offset="0.455" stop-color="#6EC8FB"/>
<stop offset="1" stop-color="#6EC8FB"/>
</linearGradient>
<linearGradient id="paint2_linear_404_67" x1="-1.96317" y1="98.1456" x2="53.87" y2="-49.6579" gradientUnits="userSpaceOnUse">
<stop offset="0.00763584" stop-color="#6EC8FB"/>
<stop offset="0.455" stop-color="#6EC8FB"/>
<stop offset="1" stop-color="#6EC8FB"/>
</linearGradient>
<linearGradient id="paint3_linear_404_67" x1="-1.57889" y1="97.9279" x2="54.7389" y2="-49.3611" gradientUnits="userSpaceOnUse">
<stop offset="0.00763584" stop-color="#6EC8FB"/>
<stop offset="0.455" stop-color="#6EC8FB"/>
<stop offset="1" stop-color="#6EC8FB"/>
</linearGradient>
</defs>
</svg>
