<svg width="12" height="12" viewBox="0 0 12 12" fill="none" xmlns="http://www.w3.org/2000/svg">
<path d="M10.8 7.80012H10.716C10.452 6.76812 9.51601 6.00012 8.40001 6.00012C7.28401 6.00012 6.34796 6.76812 6.08401 7.80012H1.20001C0.864006 7.80012 0.600006 8.06412 0.600006 8.40012C0.600006 8.73612 0.864006 9.00012 1.20001 9.00012H6.08401C6.34801 10.0321 7.28401 10.8001 8.40001 10.8001C9.51601 10.8001 10.452 10.0321 10.716 9.00012H10.8C11.136 9.00012 11.4 8.73612 11.4 8.40012C11.4 8.06412 11.136 7.80012 10.8 7.80012ZM8.40005 9.60012C7.74003 9.60012 7.20005 9.06014 7.20005 8.40012C7.20005 7.7401 7.74003 7.20012 8.40005 7.20012C9.06007 7.20012 9.60005 7.7401 9.60005 8.40012C9.60005 9.06014 9.06007 9.60012 8.40005 9.60012Z" fill="white"/>
<path d="M1.20007 4.20001H1.28411C1.54811 5.23201 2.48411 6.00001 3.60011 6.00001C4.71611 6.00001 5.65215 5.23201 5.91611 4.20001H10.8001C11.1361 4.20001 11.4001 3.93601 11.4001 3.60001C11.4001 3.26401 11.1361 3.00001 10.8001 3.00001H5.91611C5.65211 1.96801 4.71611 1.20001 3.60011 1.20001C2.48411 1.20001 1.54807 1.96801 1.28411 3.00001H1.20007C0.864067 3.00001 0.600067 3.26401 0.600067 3.60001C0.600067 3.93601 0.864067 4.20001 1.20007 4.20001V4.20001ZM3.60007 2.40001C4.26009 2.40001 4.80007 2.93999 4.80007 3.60001C4.80007 4.26003 4.26009 4.80001 3.60007 4.80001C2.94005 4.80001 2.40007 4.26003 2.40007 3.60001C2.40007 2.93999 2.94005 2.40001 3.60007 2.40001Z" fill="white"/>
</svg>
