<svg width="257" height="558" viewBox="0 0 257 558" fill="none" xmlns="http://www.w3.org/2000/svg">
<circle cx="10" cy="548" r="8" transform="rotate(-90 10 548)" stroke="#6EC8FB" stroke-width="4"/>
<rect x="8" y="528" width="200" height="4" rx="2" transform="rotate(-90 8 528)" fill="#6EC8FB"/>
<circle cx="10" cy="308" r="8" transform="rotate(-90 10 308)" stroke="#6EC8FB" stroke-width="4"/>
<rect x="8" y="288" width="200" height="4" rx="2" transform="rotate(-90 8 288)" fill="#6EC8FB"/>
<circle cx="10" cy="68" r="8" transform="rotate(-90 10 68)" stroke="#6EC8FB" stroke-width="4"/>
<path d="M29.828 18V15.912H31.484V7.488H29.828V5.4H35.012C36.704 5.4 37.988 5.832 38.864 6.696C39.752 7.548 40.196 8.82 40.196 10.512V12.888C40.196 14.58 39.752 15.858 38.864 16.722C37.988 17.574 36.704 18 35.012 18H29.828ZM33.86 15.84H35.048C36.008 15.84 36.71 15.588 37.154 15.084C37.598 14.58 37.82 13.872 37.82 12.96V10.44C37.82 9.516 37.598 8.808 37.154 8.316C36.71 7.812 36.008 7.56 35.048 7.56H33.86V15.84ZM42.2483 18V9.072H44.4803V10.08H44.8043C44.9363 9.72 45.1523 9.456 45.4523 9.288C45.7643 9.12 46.1243 9.036 46.5323 9.036H47.6123V11.052H46.4963C45.9203 11.052 45.4463 11.208 45.0743 11.52C44.7023 11.82 44.5163 12.288 44.5163 12.924V18H42.2483ZM49.385 18V9.072H51.653V18H49.385ZM50.519 8.028C50.111 8.028 49.763 7.896 49.475 7.632C49.199 7.368 49.061 7.02 49.061 6.588C49.061 6.156 49.199 5.808 49.475 5.544C49.763 5.28 50.111 5.148 50.519 5.148C50.939 5.148 51.287 5.28 51.563 5.544C51.839 5.808 51.977 6.156 51.977 6.588C51.977 7.02 51.839 7.368 51.563 7.632C51.287 7.896 50.939 8.028 50.519 8.028ZM54.1663 18V5.4H56.4343V18H54.1663ZM58.9475 18V5.4H61.2155V18H58.9475ZM69.0191 18L67.7591 9.072H70.0091L70.8011 16.47H71.1251L72.2771 9.072H75.9131L77.0651 16.47H77.3891L78.1811 9.072H80.4311L79.1711 18H75.4091L74.2571 10.602H73.9331L72.7811 18H69.0191ZM86.4471 18.252C85.5591 18.252 84.7731 18.066 84.0891 17.694C83.4171 17.31 82.8891 16.776 82.5051 16.092C82.1331 15.396 81.9471 14.58 81.9471 13.644V13.428C81.9471 12.492 82.1331 11.682 82.5051 10.998C82.8771 10.302 83.3991 9.768 84.0711 9.396C84.7431 9.012 85.5231 8.82 86.4111 8.82C87.2871 8.82 88.0491 9.018 88.6971 9.414C89.3451 9.798 89.8491 10.338 90.2091 11.034C90.5691 11.718 90.7491 12.516 90.7491 13.428V14.202H84.2511C84.2751 14.814 84.5031 15.312 84.9351 15.696C85.3671 16.08 85.8951 16.272 86.5191 16.272C87.1551 16.272 87.6231 16.134 87.9231 15.858C88.2231 15.582 88.4511 15.276 88.6071 14.94L90.4611 15.912C90.2931 16.224 90.0471 16.566 89.7231 16.938C89.4111 17.298 88.9911 17.61 88.4631 17.874C87.9351 18.126 87.2631 18.252 86.4471 18.252ZM84.2691 12.51H88.4451C88.3971 11.994 88.1871 11.58 87.8151 11.268C87.4551 10.956 86.9811 10.8 86.3931 10.8C85.7811 10.8 85.2951 10.956 84.9351 11.268C84.5751 11.58 84.3531 11.994 84.2691 12.51ZM92.7678 18V5.4H95.0358V18H92.7678ZM97.5491 18V5.4H99.8171V18H97.5491ZM106.038 18.252C104.874 18.252 103.92 18 103.176 17.496C102.432 16.992 101.982 16.272 101.826 15.336L103.914 14.796C103.998 15.216 104.136 15.546 104.328 15.786C104.532 16.026 104.778 16.2 105.066 16.308C105.366 16.404 105.69 16.452 106.038 16.452C106.566 16.452 106.956 16.362 107.208 16.182C107.46 15.99 107.586 15.756 107.586 15.48C107.586 15.204 107.466 14.994 107.226 14.85C106.986 14.694 106.602 14.568 106.074 14.472L105.57 14.382C104.946 14.262 104.376 14.1 103.86 13.896C103.344 13.68 102.93 13.386 102.618 13.014C102.306 12.642 102.15 12.162 102.15 11.574C102.15 10.686 102.474 10.008 103.122 9.54C103.77 9.06 104.622 8.82 105.678 8.82C106.674 8.82 107.502 9.042 108.162 9.486C108.822 9.93 109.254 10.512 109.458 11.232L107.352 11.88C107.256 11.424 107.058 11.1 106.758 10.908C106.47 10.716 106.11 10.62 105.678 10.62C105.246 10.62 104.916 10.698 104.688 10.854C104.46 10.998 104.346 11.202 104.346 11.466C104.346 11.754 104.466 11.97 104.706 12.114C104.946 12.246 105.27 12.348 105.678 12.42L106.182 12.51C106.854 12.63 107.46 12.792 108 12.996C108.552 13.188 108.984 13.47 109.296 13.842C109.62 14.202 109.782 14.694 109.782 15.318C109.782 16.254 109.44 16.98 108.756 17.496C108.084 18 107.178 18.252 106.038 18.252ZM113.192 18.252C112.712 18.252 112.304 18.096 111.968 17.784C111.644 17.46 111.482 17.046 111.482 16.542C111.482 16.038 111.644 15.63 111.968 15.318C112.304 14.994 112.712 14.832 113.192 14.832C113.684 14.832 114.092 14.994 114.416 15.318C114.74 15.63 114.902 16.038 114.902 16.542C114.902 17.046 114.74 17.46 114.416 17.784C114.092 18.096 113.684 18.252 113.192 18.252Z" fill="white"/>
<path d="M30.188 258V245.4H38.288V247.56H32.564V250.566H37.784V252.726H32.564V255.84H38.396V258H30.188ZM40.2268 258V249.072H42.4588V250.044H42.7828C42.9388 249.744 43.1968 249.486 43.5568 249.27C43.9168 249.042 44.3908 248.928 44.9788 248.928C45.6148 248.928 46.1248 249.054 46.5088 249.306C46.8928 249.546 47.1868 249.864 47.3908 250.26H47.7148C47.9188 249.876 48.2068 249.558 48.5788 249.306C48.9508 249.054 49.4788 248.928 50.1628 248.928C50.7148 248.928 51.2128 249.048 51.6568 249.288C52.1128 249.516 52.4728 249.87 52.7368 250.35C53.0128 250.818 53.1508 251.412 53.1508 252.132V258H50.8828V252.294C50.8828 251.802 50.7568 251.436 50.5048 251.196C50.2528 250.944 49.8988 250.818 49.4428 250.818C48.9268 250.818 48.5248 250.986 48.2368 251.322C47.9608 251.646 47.8228 252.114 47.8228 252.726V258H45.5548V252.294C45.5548 251.802 45.4288 251.436 45.1768 251.196C44.9248 250.944 44.5708 250.818 44.1148 250.818C43.5988 250.818 43.1968 250.986 42.9088 251.322C42.6328 251.646 42.4948 252.114 42.4948 252.726V258H40.2268ZM55.5901 261.6V249.072H57.8221V250.152H58.1461C58.3501 249.804 58.6681 249.498 59.1001 249.234C59.5321 248.958 60.1501 248.82 60.9541 248.82C61.6741 248.82 62.3401 249 62.9521 249.36C63.5641 249.708 64.0561 250.224 64.4281 250.908C64.8001 251.592 64.9861 252.42 64.9861 253.392V253.68C64.9861 254.652 64.8001 255.48 64.4281 256.164C64.0561 256.848 63.5641 257.37 62.9521 257.73C62.3401 258.078 61.6741 258.252 60.9541 258.252C60.4141 258.252 59.9581 258.186 59.5861 258.054C59.2261 257.934 58.9321 257.778 58.7041 257.586C58.4881 257.382 58.3141 257.178 58.1821 256.974H57.8581V261.6H55.5901ZM60.2701 256.272C60.9781 256.272 61.5601 256.05 62.0161 255.606C62.4841 255.15 62.7181 254.49 62.7181 253.626V253.446C62.7181 252.582 62.4841 251.928 62.0161 251.484C61.5481 251.028 60.9661 250.8 60.2701 250.8C59.5741 250.8 58.9921 251.028 58.5241 251.484C58.0561 251.928 57.8221 252.582 57.8221 253.446V253.626C57.8221 254.49 58.0561 255.15 58.5241 255.606C58.9921 256.05 59.5741 256.272 60.2701 256.272ZM71.3166 258.252C70.4286 258.252 69.6306 258.072 68.9226 257.712C68.2146 257.352 67.6566 256.83 67.2486 256.146C66.8406 255.462 66.6366 254.64 66.6366 253.68V253.392C66.6366 252.432 66.8406 251.61 67.2486 250.926C67.6566 250.242 68.2146 249.72 68.9226 249.36C69.6306 249 70.4286 248.82 71.3166 248.82C72.2046 248.82 73.0026 249 73.7106 249.36C74.4186 249.72 74.9766 250.242 75.3846 250.926C75.7926 251.61 75.9966 252.432 75.9966 253.392V253.68C75.9966 254.64 75.7926 255.462 75.3846 256.146C74.9766 256.83 74.4186 257.352 73.7106 257.712C73.0026 258.072 72.2046 258.252 71.3166 258.252ZM71.3166 256.236C72.0126 256.236 72.5886 256.014 73.0446 255.57C73.5006 255.114 73.7286 254.466 73.7286 253.626V253.446C73.7286 252.606 73.5006 251.964 73.0446 251.52C72.6006 251.064 72.0246 250.836 71.3166 250.836C70.6206 250.836 70.0446 251.064 69.5886 251.52C69.1326 251.964 68.9046 252.606 68.9046 253.446V253.626C68.9046 254.466 69.1326 255.114 69.5886 255.57C70.0446 256.014 70.6206 256.236 71.3166 256.236ZM78.7749 258L77.5149 249.072H79.7649L80.5569 256.47H80.8809L82.0329 249.072H85.6689L86.8209 256.47H87.1449L87.9369 249.072H90.1869L88.9269 258H85.1649L84.0129 250.602H83.6889L82.5369 258H78.7749ZM96.203 258.252C95.315 258.252 94.529 258.066 93.845 257.694C93.173 257.31 92.645 256.776 92.261 256.092C91.889 255.396 91.703 254.58 91.703 253.644V253.428C91.703 252.492 91.889 251.682 92.261 250.998C92.633 250.302 93.155 249.768 93.827 249.396C94.499 249.012 95.279 248.82 96.167 248.82C97.043 248.82 97.805 249.018 98.453 249.414C99.101 249.798 99.605 250.338 99.965 251.034C100.325 251.718 100.505 252.516 100.505 253.428V254.202H94.007C94.031 254.814 94.259 255.312 94.691 255.696C95.123 256.08 95.651 256.272 96.275 256.272C96.911 256.272 97.379 256.134 97.679 255.858C97.979 255.582 98.207 255.276 98.363 254.94L100.217 255.912C100.049 256.224 99.803 256.566 99.479 256.938C99.167 257.298 98.747 257.61 98.219 257.874C97.691 258.126 97.019 258.252 96.203 258.252ZM94.025 252.51H98.201C98.153 251.994 97.943 251.58 97.571 251.268C97.211 250.956 96.737 250.8 96.149 250.8C95.537 250.8 95.051 250.956 94.691 251.268C94.331 251.58 94.109 251.994 94.025 252.51ZM102.524 258V249.072H104.756V250.08H105.08C105.212 249.72 105.428 249.456 105.728 249.288C106.04 249.12 106.4 249.036 106.808 249.036H107.888V251.052H106.772C106.196 251.052 105.722 251.208 105.35 251.52C104.978 251.82 104.792 252.288 104.792 252.924V258H102.524ZM118.425 258.252C117.561 258.252 116.775 258.072 116.067 257.712C115.371 257.352 114.819 256.83 114.411 256.146C114.003 255.462 113.799 254.634 113.799 253.662V253.41C113.799 252.438 114.003 251.61 114.411 250.926C114.819 250.242 115.371 249.72 116.067 249.36C116.775 249 117.561 248.82 118.425 248.82C119.277 248.82 120.009 248.97 120.621 249.27C121.233 249.57 121.725 249.984 122.097 250.512C122.481 251.028 122.733 251.616 122.853 252.276L120.657 252.744C120.609 252.384 120.501 252.06 120.333 251.772C120.165 251.484 119.925 251.256 119.613 251.088C119.313 250.92 118.935 250.836 118.479 250.836C118.023 250.836 117.609 250.938 117.237 251.142C116.877 251.334 116.589 251.628 116.373 252.024C116.169 252.408 116.067 252.882 116.067 253.446V253.626C116.067 254.19 116.169 254.67 116.373 255.066C116.589 255.45 116.877 255.744 117.237 255.948C117.609 256.14 118.023 256.236 118.479 256.236C119.163 256.236 119.679 256.062 120.027 255.714C120.387 255.354 120.615 254.886 120.711 254.31L122.907 254.832C122.751 255.468 122.481 256.05 122.097 256.578C121.725 257.094 121.233 257.502 120.621 257.802C120.009 258.102 119.277 258.252 118.425 258.252ZM129.026 258.252C128.138 258.252 127.34 258.072 126.632 257.712C125.924 257.352 125.366 256.83 124.958 256.146C124.55 255.462 124.346 254.64 124.346 253.68V253.392C124.346 252.432 124.55 251.61 124.958 250.926C125.366 250.242 125.924 249.72 126.632 249.36C127.34 249 128.138 248.82 129.026 248.82C129.914 248.82 130.712 249 131.42 249.36C132.128 249.72 132.686 250.242 133.094 250.926C133.502 251.61 133.706 252.432 133.706 253.392V253.68C133.706 254.64 133.502 255.462 133.094 256.146C132.686 256.83 132.128 257.352 131.42 257.712C130.712 258.072 129.914 258.252 129.026 258.252ZM129.026 256.236C129.722 256.236 130.298 256.014 130.754 255.57C131.21 255.114 131.438 254.466 131.438 253.626V253.446C131.438 252.606 131.21 251.964 130.754 251.52C130.31 251.064 129.734 250.836 129.026 250.836C128.33 250.836 127.754 251.064 127.298 251.52C126.842 251.964 126.614 252.606 126.614 253.446V253.626C126.614 254.466 126.842 255.114 127.298 255.57C127.754 256.014 128.33 256.236 129.026 256.236ZM135.799 258V249.072H138.031V250.044H138.355C138.511 249.744 138.769 249.486 139.129 249.27C139.489 249.042 139.963 248.928 140.551 248.928C141.187 248.928 141.697 249.054 142.081 249.306C142.465 249.546 142.759 249.864 142.963 250.26H143.287C143.491 249.876 143.779 249.558 144.151 249.306C144.523 249.054 145.051 248.928 145.735 248.928C146.287 248.928 146.785 249.048 147.229 249.288C147.685 249.516 148.045 249.87 148.309 250.35C148.585 250.818 148.723 251.412 148.723 252.132V258H146.455V252.294C146.455 251.802 146.329 251.436 146.077 251.196C145.825 250.944 145.471 250.818 145.015 250.818C144.499 250.818 144.097 250.986 143.809 251.322C143.533 251.646 143.395 252.114 143.395 252.726V258H141.127V252.294C141.127 251.802 141.001 251.436 140.749 251.196C140.497 250.944 140.143 250.818 139.687 250.818C139.171 250.818 138.769 250.986 138.481 251.322C138.205 251.646 138.067 252.114 138.067 252.726V258H135.799ZM151.162 258V249.072H153.394V250.044H153.718C153.874 249.744 154.132 249.486 154.492 249.27C154.852 249.042 155.326 248.928 155.914 248.928C156.55 248.928 157.06 249.054 157.444 249.306C157.828 249.546 158.122 249.864 158.326 250.26H158.65C158.854 249.876 159.142 249.558 159.514 249.306C159.886 249.054 160.414 248.928 161.098 248.928C161.65 248.928 162.148 249.048 162.592 249.288C163.048 249.516 163.408 249.87 163.672 250.35C163.948 250.818 164.086 251.412 164.086 252.132V258H161.818V252.294C161.818 251.802 161.692 251.436 161.44 251.196C161.188 250.944 160.834 250.818 160.378 250.818C159.862 250.818 159.46 250.986 159.172 251.322C158.896 251.646 158.758 252.114 158.758 252.726V258H156.49V252.294C156.49 251.802 156.364 251.436 156.112 251.196C155.86 250.944 155.506 250.818 155.05 250.818C154.534 250.818 154.132 250.986 153.844 251.322C153.568 251.646 153.43 252.114 153.43 252.726V258H151.162ZM169.787 258.144C169.091 258.144 168.479 257.988 167.951 257.676C167.435 257.352 167.033 256.908 166.745 256.344C166.457 255.78 166.313 255.132 166.313 254.4V249.072H168.581V254.22C168.581 254.892 168.743 255.396 169.067 255.732C169.403 256.068 169.877 256.236 170.489 256.236C171.185 256.236 171.725 256.008 172.109 255.552C172.493 255.084 172.685 254.436 172.685 253.608V249.072H174.953V258H172.721V256.83H172.397C172.253 257.13 171.983 257.424 171.587 257.712C171.191 258 170.591 258.144 169.787 258.144ZM177.477 258V249.072H179.709V250.242H180.033C180.177 249.93 180.447 249.636 180.843 249.36C181.239 249.072 181.839 248.928 182.643 248.928C183.339 248.928 183.945 249.09 184.461 249.414C184.989 249.726 185.397 250.164 185.685 250.728C185.973 251.28 186.117 251.928 186.117 252.672V258H183.849V252.852C183.849 252.18 183.681 251.676 183.345 251.34C183.021 251.004 182.553 250.836 181.941 250.836C181.245 250.836 180.705 251.07 180.321 251.538C179.937 251.994 179.745 252.636 179.745 253.464V258H177.477ZM188.569 258V249.072H190.837V258H188.569ZM189.703 248.028C189.295 248.028 188.947 247.896 188.659 247.632C188.383 247.368 188.245 247.02 188.245 246.588C188.245 246.156 188.383 245.808 188.659 245.544C188.947 245.28 189.295 245.148 189.703 245.148C190.123 245.148 190.471 245.28 190.747 245.544C191.023 245.808 191.161 246.156 191.161 246.588C191.161 247.02 191.023 247.368 190.747 247.632C190.471 247.896 190.123 248.028 189.703 248.028ZM196.77 258C196.182 258 195.702 257.82 195.33 257.46C194.97 257.088 194.79 256.596 194.79 255.984V250.944H192.558V249.072H194.79V246.3H197.058V249.072H199.506V250.944H197.058V255.588C197.058 255.948 197.226 256.128 197.562 256.128H199.29V258H196.77ZM201.559 258V249.072H203.827V258H201.559ZM202.693 248.028C202.285 248.028 201.937 247.896 201.649 247.632C201.373 247.368 201.235 247.02 201.235 246.588C201.235 246.156 201.373 245.808 201.649 245.544C201.937 245.28 202.285 245.148 202.693 245.148C203.113 245.148 203.461 245.28 203.737 245.544C204.013 245.808 204.151 246.156 204.151 246.588C204.151 247.02 204.013 247.368 203.737 247.632C203.461 247.896 203.113 248.028 202.693 248.028ZM210.408 258.252C209.52 258.252 208.734 258.066 208.05 257.694C207.378 257.31 206.85 256.776 206.466 256.092C206.094 255.396 205.908 254.58 205.908 253.644V253.428C205.908 252.492 206.094 251.682 206.466 250.998C206.838 250.302 207.36 249.768 208.032 249.396C208.704 249.012 209.484 248.82 210.372 248.82C211.248 248.82 212.01 249.018 212.658 249.414C213.306 249.798 213.81 250.338 214.17 251.034C214.53 251.718 214.71 252.516 214.71 253.428V254.202H208.212C208.236 254.814 208.464 255.312 208.896 255.696C209.328 256.08 209.856 256.272 210.48 256.272C211.116 256.272 211.584 256.134 211.884 255.858C212.184 255.582 212.412 255.276 212.568 254.94L214.422 255.912C214.254 256.224 214.008 256.566 213.684 256.938C213.372 257.298 212.952 257.61 212.424 257.874C211.896 258.126 211.224 258.252 210.408 258.252ZM208.23 252.51H212.406C212.358 251.994 212.148 251.58 211.776 251.268C211.416 250.956 210.942 250.8 210.354 250.8C209.742 250.8 209.256 250.956 208.896 251.268C208.536 251.58 208.314 251.994 208.23 252.51ZM220.437 258.252C219.273 258.252 218.319 258 217.575 257.496C216.831 256.992 216.381 256.272 216.225 255.336L218.313 254.796C218.397 255.216 218.535 255.546 218.727 255.786C218.931 256.026 219.177 256.2 219.465 256.308C219.765 256.404 220.089 256.452 220.437 256.452C220.965 256.452 221.355 256.362 221.607 256.182C221.859 255.99 221.985 255.756 221.985 255.48C221.985 255.204 221.865 254.994 221.625 254.85C221.385 254.694 221.001 254.568 220.473 254.472L219.969 254.382C219.345 254.262 218.775 254.1 218.259 253.896C217.743 253.68 217.329 253.386 217.017 253.014C216.705 252.642 216.549 252.162 216.549 251.574C216.549 250.686 216.873 250.008 217.521 249.54C218.169 249.06 219.021 248.82 220.077 248.82C221.073 248.82 221.901 249.042 222.561 249.486C223.221 249.93 223.653 250.512 223.857 251.232L221.751 251.88C221.655 251.424 221.457 251.1 221.157 250.908C220.869 250.716 220.509 250.62 220.077 250.62C219.645 250.62 219.315 250.698 219.087 250.854C218.859 250.998 218.745 251.202 218.745 251.466C218.745 251.754 218.865 251.97 219.105 252.114C219.345 252.246 219.669 252.348 220.077 252.42L220.581 252.51C221.253 252.63 221.859 252.792 222.399 252.996C222.951 253.188 223.383 253.47 223.695 253.842C224.019 254.202 224.181 254.694 224.181 255.318C224.181 256.254 223.839 256.98 223.155 257.496C222.483 258 221.577 258.252 220.437 258.252ZM227.59 258.252C227.11 258.252 226.702 258.096 226.366 257.784C226.042 257.46 225.88 257.046 225.88 256.542C225.88 256.038 226.042 255.63 226.366 255.318C226.702 254.994 227.11 254.832 227.59 254.832C228.082 254.832 228.49 254.994 228.814 255.318C229.138 255.63 229.3 256.038 229.3 256.542C229.3 257.046 229.138 257.46 228.814 257.784C228.49 258.096 228.082 258.252 227.59 258.252Z" fill="white"/>
<path d="M29.828 498V495.912H31.484V487.488H29.828V485.4H36.308C37.076 485.4 37.742 485.532 38.306 485.796C38.882 486.048 39.326 486.414 39.638 486.894C39.962 487.362 40.124 487.926 40.124 488.586V488.766C40.124 489.342 40.016 489.816 39.8 490.188C39.584 490.548 39.326 490.83 39.026 491.034C38.738 491.226 38.462 491.364 38.198 491.448V491.772C38.462 491.844 38.75 491.982 39.062 492.186C39.374 492.378 39.638 492.66 39.854 493.032C40.082 493.404 40.196 493.89 40.196 494.49V494.67C40.196 495.366 40.034 495.966 39.71 496.47C39.386 496.962 38.936 497.34 38.36 497.604C37.796 497.868 37.136 498 36.38 498H29.828ZM33.86 495.84H36.092C36.608 495.84 37.022 495.714 37.334 495.462C37.658 495.21 37.82 494.85 37.82 494.382V494.202C37.82 493.734 37.664 493.374 37.352 493.122C37.04 492.87 36.62 492.744 36.092 492.744H33.86V495.84ZM33.86 490.584H36.056C36.548 490.584 36.95 490.458 37.262 490.206C37.586 489.954 37.748 489.606 37.748 489.162V488.982C37.748 488.526 37.592 488.178 37.28 487.938C36.968 487.686 36.56 487.56 36.056 487.56H33.86V490.584ZM45.6151 498.144C44.9191 498.144 44.3071 497.988 43.7791 497.676C43.2631 497.352 42.8611 496.908 42.5731 496.344C42.2851 495.78 42.1411 495.132 42.1411 494.4V489.072H44.4091V494.22C44.4091 494.892 44.5711 495.396 44.8951 495.732C45.2311 496.068 45.7051 496.236 46.3171 496.236C47.0131 496.236 47.5531 496.008 47.9371 495.552C48.3211 495.084 48.5131 494.436 48.5131 493.608V489.072H50.7811V498H48.5491V496.83H48.2251C48.0811 497.13 47.8111 497.424 47.4151 497.712C47.0191 498 46.4191 498.144 45.6151 498.144ZM53.3049 498V489.072H55.5729V498H53.3049ZM54.4389 488.028C54.0309 488.028 53.6829 487.896 53.3949 487.632C53.1189 487.368 52.9809 487.02 52.9809 486.588C52.9809 486.156 53.1189 485.808 53.3949 485.544C53.6829 485.28 54.0309 485.148 54.4389 485.148C54.8589 485.148 55.2069 485.28 55.4829 485.544C55.7589 485.808 55.8969 486.156 55.8969 486.588C55.8969 487.02 55.7589 487.368 55.4829 487.632C55.2069 487.896 54.8589 488.028 54.4389 488.028ZM58.0862 498V485.4H60.3542V498H58.0862ZM66.4674 498.252C65.7594 498.252 65.0934 498.078 64.4694 497.73C63.8574 497.37 63.3654 496.848 62.9934 496.164C62.6214 495.48 62.4354 494.652 62.4354 493.68V493.392C62.4354 492.42 62.6214 491.592 62.9934 490.908C63.3654 490.224 63.8574 489.708 64.4694 489.36C65.0814 489 65.7474 488.82 66.4674 488.82C67.0074 488.82 67.4574 488.886 67.8174 489.018C68.1894 489.138 68.4894 489.294 68.7174 489.486C68.9454 489.678 69.1194 489.882 69.2394 490.098H69.5634V485.4H71.8314V498H69.5994V496.92H69.2754C69.0714 497.256 68.7534 497.562 68.3214 497.838C67.9014 498.114 67.2834 498.252 66.4674 498.252ZM67.1514 496.272C67.8474 496.272 68.4294 496.05 68.8974 495.606C69.3654 495.15 69.5994 494.49 69.5994 493.626V493.446C69.5994 492.582 69.3654 491.928 68.8974 491.484C68.4414 491.028 67.8594 490.8 67.1514 490.8C66.4554 490.8 65.8734 491.028 65.4054 491.484C64.9374 491.928 64.7034 492.582 64.7034 493.446V493.626C64.7034 494.49 64.9374 495.15 65.4054 495.606C65.8734 496.05 66.4554 496.272 67.1514 496.272ZM78.9163 498V485.4H81.1843V490.17H81.5083C81.6043 489.978 81.7543 489.786 81.9583 489.594C82.1623 489.402 82.4323 489.246 82.7683 489.126C83.1163 488.994 83.5543 488.928 84.0823 488.928C84.7783 488.928 85.3843 489.09 85.9003 489.414C86.4283 489.726 86.8363 490.164 87.1243 490.728C87.4123 491.28 87.5563 491.928 87.5563 492.672V498H85.2883V492.852C85.2883 492.18 85.1203 491.676 84.7843 491.34C84.4603 491.004 83.9923 490.836 83.3803 490.836C82.6843 490.836 82.1443 491.07 81.7603 491.538C81.3763 491.994 81.1843 492.636 81.1843 493.464V498H78.9163ZM94.256 498.252C93.368 498.252 92.57 498.072 91.862 497.712C91.154 497.352 90.596 496.83 90.188 496.146C89.78 495.462 89.576 494.64 89.576 493.68V493.392C89.576 492.432 89.78 491.61 90.188 490.926C90.596 490.242 91.154 489.72 91.862 489.36C92.57 489 93.368 488.82 94.256 488.82C95.144 488.82 95.942 489 96.65 489.36C97.358 489.72 97.916 490.242 98.324 490.926C98.732 491.61 98.936 492.432 98.936 493.392V493.68C98.936 494.64 98.732 495.462 98.324 496.146C97.916 496.83 97.358 497.352 96.65 497.712C95.942 498.072 95.144 498.252 94.256 498.252ZM94.256 496.236C94.952 496.236 95.528 496.014 95.984 495.57C96.44 495.114 96.668 494.466 96.668 493.626V493.446C96.668 492.606 96.44 491.964 95.984 491.52C95.54 491.064 94.964 490.836 94.256 490.836C93.56 490.836 92.984 491.064 92.528 491.52C92.072 491.964 91.844 492.606 91.844 493.446V493.626C91.844 494.466 92.072 495.114 92.528 495.57C92.984 496.014 93.56 496.236 94.256 496.236ZM101.03 498V489.072H103.262V490.044H103.586C103.742 489.744 104 489.486 104.36 489.27C104.72 489.042 105.194 488.928 105.782 488.928C106.418 488.928 106.928 489.054 107.312 489.306C107.696 489.546 107.99 489.864 108.194 490.26H108.518C108.722 489.876 109.01 489.558 109.382 489.306C109.754 489.054 110.282 488.928 110.966 488.928C111.518 488.928 112.016 489.048 112.46 489.288C112.916 489.516 113.276 489.87 113.54 490.35C113.816 490.818 113.954 491.412 113.954 492.132V498H111.686V492.294C111.686 491.802 111.56 491.436 111.308 491.196C111.056 490.944 110.702 490.818 110.246 490.818C109.73 490.818 109.328 490.986 109.04 491.322C108.764 491.646 108.626 492.114 108.626 492.726V498H106.358V492.294C106.358 491.802 106.232 491.436 105.98 491.196C105.728 490.944 105.374 490.818 104.918 490.818C104.402 490.818 104 490.986 103.712 491.322C103.436 491.646 103.298 492.114 103.298 492.726V498H101.03ZM120.461 498.252C119.573 498.252 118.787 498.066 118.103 497.694C117.431 497.31 116.903 496.776 116.519 496.092C116.147 495.396 115.961 494.58 115.961 493.644V493.428C115.961 492.492 116.147 491.682 116.519 490.998C116.891 490.302 117.413 489.768 118.085 489.396C118.757 489.012 119.537 488.82 120.425 488.82C121.301 488.82 122.063 489.018 122.711 489.414C123.359 489.798 123.863 490.338 124.223 491.034C124.583 491.718 124.763 492.516 124.763 493.428V494.202H118.265C118.289 494.814 118.517 495.312 118.949 495.696C119.381 496.08 119.909 496.272 120.533 496.272C121.169 496.272 121.637 496.134 121.937 495.858C122.237 495.582 122.465 495.276 122.621 494.94L124.475 495.912C124.307 496.224 124.061 496.566 123.737 496.938C123.425 497.298 123.005 497.61 122.477 497.874C121.949 498.126 121.277 498.252 120.461 498.252ZM118.283 492.51H122.459C122.411 491.994 122.201 491.58 121.829 491.268C121.469 490.956 120.995 490.8 120.407 490.8C119.795 490.8 119.309 490.956 118.949 491.268C118.589 491.58 118.367 491.994 118.283 492.51ZM130.489 498.252C129.325 498.252 128.371 498 127.627 497.496C126.883 496.992 126.433 496.272 126.277 495.336L128.365 494.796C128.449 495.216 128.587 495.546 128.779 495.786C128.983 496.026 129.229 496.2 129.517 496.308C129.817 496.404 130.141 496.452 130.489 496.452C131.017 496.452 131.407 496.362 131.659 496.182C131.911 495.99 132.037 495.756 132.037 495.48C132.037 495.204 131.917 494.994 131.677 494.85C131.437 494.694 131.053 494.568 130.525 494.472L130.021 494.382C129.397 494.262 128.827 494.1 128.311 493.896C127.795 493.68 127.381 493.386 127.069 493.014C126.757 492.642 126.601 492.162 126.601 491.574C126.601 490.686 126.925 490.008 127.573 489.54C128.221 489.06 129.073 488.82 130.129 488.82C131.125 488.82 131.953 489.042 132.613 489.486C133.273 489.93 133.705 490.512 133.909 491.232L131.803 491.88C131.707 491.424 131.509 491.1 131.209 490.908C130.921 490.716 130.561 490.62 130.129 490.62C129.697 490.62 129.367 490.698 129.139 490.854C128.911 490.998 128.797 491.202 128.797 491.466C128.797 491.754 128.917 491.97 129.157 492.114C129.397 492.246 129.721 492.348 130.129 492.42L130.633 492.51C131.305 492.63 131.911 492.792 132.451 492.996C133.003 493.188 133.435 493.47 133.747 493.842C134.071 494.202 134.233 494.694 134.233 495.318C134.233 496.254 133.891 496.98 133.207 497.496C132.535 498 131.629 498.252 130.489 498.252ZM137.643 498.252C137.163 498.252 136.755 498.096 136.419 497.784C136.095 497.46 135.933 497.046 135.933 496.542C135.933 496.038 136.095 495.63 136.419 495.318C136.755 494.994 137.163 494.832 137.643 494.832C138.135 494.832 138.543 494.994 138.867 495.318C139.191 495.63 139.353 496.038 139.353 496.542C139.353 497.046 139.191 497.46 138.867 497.784C138.543 498.096 138.135 498.252 137.643 498.252Z" fill="white"/>
</svg>
