<svg width="1086" height="175" viewBox="0 0 1086 175" fill="none" xmlns="http://www.w3.org/2000/svg">
<circle cx="545" cy="11" r="9" stroke="#6EC8FB" stroke-width="4"/>
<circle cx="90" cy="119" r="9" stroke="#6EC8FB" stroke-width="4"/>
<path d="M965 119C965 124.154 961.243 128 957 128C952.757 128 949 124.154 949 119C949 113.846 952.757 110 957 110C961.243 110 965 113.846 965 119Z" stroke="#6EC8FB" stroke-width="4"/>
<circle cx="545" cy="119" r="9" stroke="#6EC8FB" stroke-width="4"/>
<rect x="543" y="32" width="4" height="65" rx="2" fill="#6EC8FB"/>
<rect x="112" y="117" width="411" height="4" rx="2" fill="#6EC8FB"/>
<rect x="567" y="117" width="370" height="4" rx="2" fill="#6EC8FB"/>
<path d="M0.756747 170V152.545H7.3022C8.64311 152.545 9.76811 152.795 10.6772 153.295C11.592 153.795 12.2823 154.483 12.7482 155.358C13.2198 156.227 13.4556 157.216 13.4556 158.324C13.4556 159.443 13.2198 160.437 12.7482 161.307C12.2766 162.176 11.5806 162.861 10.6602 163.361C9.7397 163.855 8.60618 164.102 7.25959 164.102H2.92152V161.503H6.83345C7.61754 161.503 8.25959 161.366 8.75959 161.094C9.25959 160.821 9.62891 160.446 9.86754 159.969C10.1119 159.491 10.234 158.943 10.234 158.324C10.234 157.705 10.1119 157.159 9.86754 156.688C9.62891 156.216 9.25675 155.849 8.75107 155.588C8.25107 155.321 7.60618 155.188 6.81641 155.188H3.91868V170H0.756747ZM16.0657 170V156.909H19.0572V159.091H19.1935C19.4322 158.335 19.8413 157.753 20.4208 157.344C21.006 156.929 21.6737 156.722 22.4237 156.722C22.5941 156.722 22.7844 156.73 22.9947 156.747C23.2106 156.759 23.3896 156.778 23.5316 156.807V159.645C23.4009 159.599 23.1935 159.56 22.9094 159.526C22.631 159.486 22.3612 159.466 22.0998 159.466C21.5373 159.466 21.0316 159.588 20.5827 159.832C20.1396 160.071 19.7901 160.403 19.5344 160.83C19.2788 161.256 19.1509 161.747 19.1509 162.304V170H16.0657ZM30.7525 170.256C29.4741 170.256 28.3661 169.974 27.4286 169.412C26.4911 168.849 25.7638 168.062 25.2468 167.051C24.7354 166.04 24.4798 164.858 24.4798 163.506C24.4798 162.153 24.7354 160.969 25.2468 159.952C25.7638 158.935 26.4911 158.145 27.4286 157.582C28.3661 157.02 29.4741 156.739 30.7525 156.739C32.0309 156.739 33.1388 157.02 34.0763 157.582C35.0138 158.145 35.7383 158.935 36.2496 159.952C36.7667 160.969 37.0252 162.153 37.0252 163.506C37.0252 164.858 36.7667 166.04 36.2496 167.051C35.7383 168.062 35.0138 168.849 34.0763 169.412C33.1388 169.974 32.0309 170.256 30.7525 170.256ZM30.7695 167.784C31.4627 167.784 32.0423 167.594 32.5082 167.213C32.9741 166.827 33.3207 166.31 33.5479 165.662C33.7809 165.014 33.8974 164.293 33.8974 163.497C33.8974 162.696 33.7809 161.972 33.5479 161.324C33.3207 160.67 32.9741 160.151 32.5082 159.764C32.0423 159.378 31.4627 159.185 30.7695 159.185C30.0593 159.185 29.4684 159.378 28.9968 159.764C28.5309 160.151 28.1815 160.67 27.9485 161.324C27.7212 161.972 27.6076 162.696 27.6076 163.497C27.6076 164.293 27.7212 165.014 27.9485 165.662C28.1815 166.31 28.5309 166.827 28.9968 167.213C29.4684 167.594 30.0593 167.784 30.7695 167.784ZM50.8917 156.909L46.2298 170H42.8207L38.1587 156.909H41.4485L44.457 166.634H44.5934L47.6104 156.909H50.8917ZM53.0266 170V156.909H56.1119V170H53.0266ZM54.5778 155.051C54.0891 155.051 53.6687 154.889 53.3164 154.565C52.9641 154.236 52.788 153.841 52.788 153.381C52.788 152.915 52.9641 152.52 53.3164 152.196C53.6687 151.866 54.0891 151.702 54.5778 151.702C55.0721 151.702 55.4925 151.866 55.8391 152.196C56.1914 152.52 56.3675 152.915 56.3675 153.381C56.3675 153.841 56.1914 154.236 55.8391 154.565C55.4925 154.889 55.0721 155.051 54.5778 155.051ZM64.1424 170.23C63.114 170.23 62.1935 169.966 61.381 169.438C60.5685 168.909 59.9265 168.142 59.4549 167.136C58.9833 166.131 58.7475 164.909 58.7475 163.472C58.7475 162.017 58.9862 160.79 59.4634 159.79C59.9464 158.784 60.5969 158.026 61.4151 157.514C62.2333 156.997 63.1452 156.739 64.1509 156.739C64.918 156.739 65.5487 156.869 66.043 157.131C66.5373 157.386 66.9293 157.696 67.2191 158.06C67.5089 158.418 67.7333 158.756 67.8924 159.074H68.0202V152.545H71.114V170H68.0799V167.938H67.8924C67.7333 168.256 67.5032 168.594 67.2021 168.952C66.9009 169.304 66.5032 169.605 66.0089 169.855C65.5146 170.105 64.8924 170.23 64.1424 170.23ZM65.0032 167.699C65.6566 167.699 66.2134 167.523 66.6737 167.17C67.1339 166.812 67.4833 166.315 67.7219 165.679C67.9606 165.043 68.0799 164.301 68.0799 163.455C68.0799 162.608 67.9606 161.872 67.7219 161.247C67.489 160.622 67.1424 160.136 66.6822 159.79C66.2276 159.443 65.668 159.27 65.0032 159.27C64.3157 159.27 63.7418 159.449 63.2816 159.807C62.8214 160.165 62.4748 160.659 62.2418 161.29C62.0089 161.92 61.8924 162.642 61.8924 163.455C61.8924 164.273 62.0089 165.003 62.2418 165.645C62.4805 166.281 62.8299 166.784 63.2901 167.153C63.756 167.517 64.3271 167.699 65.0032 167.699ZM80.1971 170.256C78.8846 170.256 77.7511 169.983 76.7965 169.438C75.8477 168.886 75.1175 168.108 74.6062 167.102C74.0948 166.091 73.8391 164.901 73.8391 163.531C73.8391 162.185 74.0948 161.003 74.6062 159.986C75.1232 158.963 75.8448 158.168 76.771 157.599C77.6971 157.026 78.7852 156.739 80.0352 156.739C80.842 156.739 81.6033 156.869 82.3192 157.131C83.0408 157.386 83.6772 157.784 84.2283 158.324C84.7852 158.864 85.2227 159.551 85.5408 160.386C85.859 161.216 86.0181 162.205 86.0181 163.352V164.298H75.288V162.219H83.0607C83.055 161.628 82.9272 161.102 82.6772 160.642C82.4272 160.176 82.0778 159.81 81.6289 159.543C81.1857 159.276 80.6687 159.142 80.0778 159.142C79.4471 159.142 78.8931 159.295 78.4158 159.602C77.9386 159.903 77.5664 160.301 77.2994 160.795C77.038 161.284 76.9045 161.821 76.8988 162.406V164.222C76.8988 164.983 77.038 165.636 77.3164 166.182C77.5948 166.722 77.984 167.136 78.484 167.426C78.984 167.71 79.5692 167.852 80.2397 167.852C80.6886 167.852 81.0948 167.79 81.4585 167.665C81.8221 167.534 82.1374 167.344 82.4045 167.094C82.6715 166.844 82.8732 166.534 83.0096 166.165L85.8903 166.489C85.7085 167.25 85.3619 167.915 84.8505 168.483C84.3448 169.045 83.6971 169.483 82.9073 169.795C82.1175 170.102 81.2141 170.256 80.1971 170.256ZM109.658 158.435H106.471C106.38 157.912 106.212 157.449 105.968 157.045C105.723 156.636 105.419 156.29 105.056 156.006C104.692 155.722 104.277 155.509 103.811 155.366C103.351 155.219 102.854 155.145 102.32 155.145C101.371 155.145 100.53 155.384 99.7972 155.861C99.0643 156.332 98.4904 157.026 98.0756 157.94C97.6609 158.849 97.4535 159.96 97.4535 161.273C97.4535 162.608 97.6609 163.733 98.0756 164.648C98.4961 165.557 99.07 166.244 99.7972 166.71C100.53 167.17 101.368 167.401 102.311 167.401C102.834 167.401 103.323 167.332 103.777 167.196C104.238 167.054 104.65 166.847 105.013 166.574C105.382 166.301 105.692 165.966 105.942 165.568C106.198 165.17 106.374 164.716 106.471 164.205L109.658 164.222C109.539 165.051 109.28 165.83 108.882 166.557C108.49 167.284 107.976 167.926 107.34 168.483C106.703 169.034 105.959 169.466 105.107 169.778C104.255 170.085 103.309 170.239 102.269 170.239C100.735 170.239 99.3654 169.884 98.1609 169.173C96.9563 168.463 96.0075 167.438 95.3143 166.097C94.6211 164.756 94.2745 163.148 94.2745 161.273C94.2745 159.392 94.6239 157.784 95.3228 156.449C96.0217 155.108 96.9734 154.082 98.1779 153.372C99.3825 152.662 100.746 152.307 102.269 152.307C103.24 152.307 104.144 152.443 104.979 152.716C105.814 152.989 106.559 153.389 107.212 153.918C107.865 154.44 108.402 155.082 108.823 155.844C109.249 156.599 109.527 157.463 109.658 158.435ZM115.502 152.545V170H112.417V152.545H115.502ZM124.471 170.256C123.158 170.256 122.025 169.983 121.07 169.438C120.121 168.886 119.391 168.108 118.88 167.102C118.368 166.091 118.113 164.901 118.113 163.531C118.113 162.185 118.368 161.003 118.88 159.986C119.397 158.963 120.118 158.168 121.044 157.599C121.971 157.026 123.059 156.739 124.309 156.739C125.115 156.739 125.877 156.869 126.593 157.131C127.314 157.386 127.951 157.784 128.502 158.324C129.059 158.864 129.496 159.551 129.814 160.386C130.132 161.216 130.292 162.205 130.292 163.352V164.298H119.561V162.219H127.334C127.328 161.628 127.201 161.102 126.951 160.642C126.701 160.176 126.351 159.81 125.902 159.543C125.459 159.276 124.942 159.142 124.351 159.142C123.721 159.142 123.167 159.295 122.689 159.602C122.212 159.903 121.84 160.301 121.573 160.795C121.311 161.284 121.178 161.821 121.172 162.406V164.222C121.172 164.983 121.311 165.636 121.59 166.182C121.868 166.722 122.257 167.136 122.757 167.426C123.257 167.71 123.843 167.852 124.513 167.852C124.962 167.852 125.368 167.79 125.732 167.665C126.096 167.534 126.411 167.344 126.678 167.094C126.945 166.844 127.147 166.534 127.283 166.165L130.164 166.489C129.982 167.25 129.635 167.915 129.124 168.483C128.618 169.045 127.971 169.483 127.181 169.795C126.391 170.102 125.488 170.256 124.471 170.256ZM136.669 170.264C135.839 170.264 135.092 170.116 134.427 169.821C133.768 169.52 133.245 169.077 132.859 168.491C132.478 167.906 132.288 167.185 132.288 166.327C132.288 165.588 132.424 164.977 132.697 164.494C132.97 164.011 133.342 163.625 133.814 163.335C134.285 163.045 134.816 162.827 135.407 162.679C136.004 162.526 136.62 162.415 137.257 162.347C138.024 162.267 138.646 162.196 139.123 162.134C139.6 162.065 139.947 161.963 140.163 161.827C140.385 161.685 140.495 161.466 140.495 161.17V161.119C140.495 160.477 140.305 159.98 139.924 159.628C139.544 159.276 138.995 159.099 138.279 159.099C137.524 159.099 136.924 159.264 136.481 159.594C136.044 159.923 135.748 160.312 135.595 160.761L132.714 160.352C132.941 159.557 133.316 158.892 133.839 158.358C134.362 157.818 135.001 157.415 135.757 157.148C136.512 156.875 137.348 156.739 138.262 156.739C138.893 156.739 139.521 156.812 140.146 156.96C140.771 157.108 141.342 157.352 141.859 157.693C142.376 158.028 142.791 158.486 143.103 159.065C143.422 159.645 143.581 160.369 143.581 161.239V170H140.615V168.202H140.512C140.325 168.565 140.061 168.906 139.72 169.224C139.385 169.537 138.961 169.79 138.45 169.983C137.944 170.17 137.35 170.264 136.669 170.264ZM137.47 167.997C138.089 167.997 138.626 167.875 139.081 167.631C139.535 167.381 139.885 167.051 140.129 166.642C140.379 166.233 140.504 165.787 140.504 165.304V163.761C140.407 163.841 140.243 163.915 140.01 163.983C139.782 164.051 139.527 164.111 139.243 164.162C138.958 164.213 138.677 164.259 138.399 164.298C138.12 164.338 137.879 164.372 137.674 164.401C137.214 164.463 136.802 164.565 136.439 164.707C136.075 164.849 135.788 165.048 135.578 165.304C135.368 165.554 135.262 165.878 135.262 166.276C135.262 166.844 135.47 167.273 135.885 167.562C136.299 167.852 136.828 167.997 137.47 167.997ZM149.768 162.33V170H146.683V156.909H149.632V159.134H149.785C150.086 158.401 150.566 157.818 151.225 157.386C151.89 156.955 152.711 156.739 153.689 156.739C154.592 156.739 155.379 156.932 156.049 157.318C156.725 157.705 157.248 158.264 157.618 158.997C157.993 159.73 158.177 160.619 158.172 161.665V170H155.086V162.142C155.086 161.267 154.859 160.582 154.404 160.088C153.956 159.594 153.333 159.347 152.538 159.347C151.998 159.347 151.518 159.466 151.098 159.705C150.683 159.937 150.356 160.276 150.118 160.719C149.885 161.162 149.768 161.699 149.768 162.33ZM171.071 170L166.145 152.545H169.545L172.69 165.372H172.852L176.21 152.545H179.304L182.67 165.381H182.824L185.968 152.545H189.369L184.443 170H181.324L177.829 157.753H177.693L174.19 170H171.071ZM193.856 170.264C193.027 170.264 192.279 170.116 191.615 169.821C190.956 169.52 190.433 169.077 190.047 168.491C189.666 167.906 189.475 167.185 189.475 166.327C189.475 165.588 189.612 164.977 189.885 164.494C190.157 164.011 190.529 163.625 191.001 163.335C191.473 163.045 192.004 162.827 192.595 162.679C193.191 162.526 193.808 162.415 194.444 162.347C195.211 162.267 195.833 162.196 196.311 162.134C196.788 162.065 197.135 161.963 197.35 161.827C197.572 161.685 197.683 161.466 197.683 161.17V161.119C197.683 160.477 197.493 159.98 197.112 159.628C196.731 159.276 196.183 159.099 195.467 159.099C194.711 159.099 194.112 159.264 193.669 159.594C193.231 159.923 192.936 160.312 192.782 160.761L189.902 160.352C190.129 159.557 190.504 158.892 191.027 158.358C191.549 157.818 192.189 157.415 192.944 157.148C193.7 156.875 194.535 156.739 195.45 156.739C196.081 156.739 196.708 156.812 197.333 156.96C197.958 157.108 198.529 157.352 199.047 157.693C199.564 158.028 199.978 158.486 200.291 159.065C200.609 159.645 200.768 160.369 200.768 161.239V170H197.802V168.202H197.7C197.512 168.565 197.248 168.906 196.907 169.224C196.572 169.537 196.149 169.79 195.637 169.983C195.132 170.17 194.538 170.264 193.856 170.264ZM194.657 167.997C195.277 167.997 195.814 167.875 196.268 167.631C196.723 167.381 197.072 167.051 197.316 166.642C197.566 166.233 197.691 165.787 197.691 165.304V163.761C197.595 163.841 197.43 163.915 197.197 163.983C196.97 164.051 196.714 164.111 196.43 164.162C196.146 164.213 195.865 164.259 195.586 164.298C195.308 164.338 195.066 164.372 194.862 164.401C194.402 164.463 193.99 164.565 193.626 164.707C193.262 164.849 192.975 165.048 192.765 165.304C192.555 165.554 192.45 165.878 192.45 166.276C192.45 166.844 192.657 167.273 193.072 167.562C193.487 167.852 194.015 167.997 194.657 167.997ZM210.407 156.909V159.295H202.882V156.909H210.407ZM204.74 153.773H207.825V166.062C207.825 166.477 207.887 166.795 208.012 167.017C208.143 167.233 208.314 167.381 208.524 167.46C208.734 167.54 208.967 167.58 209.223 167.58C209.416 167.58 209.592 167.565 209.751 167.537C209.916 167.509 210.041 167.483 210.126 167.46L210.646 169.872C210.481 169.929 210.245 169.991 209.939 170.06C209.637 170.128 209.268 170.168 208.831 170.179C208.058 170.202 207.362 170.085 206.743 169.83C206.123 169.568 205.632 169.165 205.268 168.619C204.91 168.074 204.734 167.392 204.74 166.574V153.773ZM218.642 170.256C217.33 170.256 216.196 169.983 215.242 169.438C214.293 168.886 213.563 168.108 213.051 167.102C212.54 166.091 212.284 164.901 212.284 163.531C212.284 162.185 212.54 161.003 213.051 159.986C213.569 158.963 214.29 158.168 215.216 157.599C216.142 157.026 217.23 156.739 218.48 156.739C219.287 156.739 220.049 156.869 220.765 157.131C221.486 157.386 222.123 157.784 222.674 158.324C223.23 158.864 223.668 159.551 223.986 160.386C224.304 161.216 224.463 162.205 224.463 163.352V164.298H213.733V162.219H221.506C221.5 161.628 221.373 161.102 221.123 160.642C220.873 160.176 220.523 159.81 220.074 159.543C219.631 159.276 219.114 159.142 218.523 159.142C217.892 159.142 217.338 159.295 216.861 159.602C216.384 159.903 216.012 160.301 215.745 160.795C215.483 161.284 215.35 161.821 215.344 162.406V164.222C215.344 164.983 215.483 165.636 215.762 166.182C216.04 166.722 216.429 167.136 216.929 167.426C217.429 167.71 218.015 167.852 218.685 167.852C219.134 167.852 219.54 167.79 219.904 167.665C220.267 167.534 220.583 167.344 220.85 167.094C221.117 166.844 221.319 166.534 221.455 166.165L224.336 166.489C224.154 167.25 223.807 167.915 223.296 168.483C222.79 169.045 222.142 169.483 221.353 169.795C220.563 170.102 219.659 170.256 218.642 170.256ZM227.074 170V156.909H230.065V159.091H230.201C230.44 158.335 230.849 157.753 231.429 157.344C232.014 156.929 232.681 156.722 233.431 156.722C233.602 156.722 233.792 156.73 234.002 156.747C234.218 156.759 234.397 156.778 234.539 156.807V159.645C234.409 159.599 234.201 159.56 233.917 159.526C233.639 159.486 233.369 159.466 233.108 159.466C232.545 159.466 232.039 159.588 231.591 159.832C231.147 160.071 230.798 160.403 230.542 160.83C230.287 161.256 230.159 161.747 230.159 162.304V170H227.074ZM236.99 170.188C236.473 170.188 236.029 170.006 235.66 169.642C235.291 169.278 235.109 168.835 235.115 168.312C235.109 167.801 235.291 167.364 235.66 167C236.029 166.636 236.473 166.455 236.99 166.455C237.49 166.455 237.924 166.636 238.294 167C238.669 167.364 238.859 167.801 238.865 168.312C238.859 168.659 238.768 168.974 238.592 169.259C238.422 169.543 238.194 169.77 237.91 169.94C237.632 170.105 237.325 170.188 236.99 170.188Z" fill="#6EC8FB"/>
<path d="M496.188 152.545V170H493.026V152.545H496.188ZM502.561 162.33V170H499.476V156.909H502.425V159.134H502.578C502.879 158.401 503.359 157.818 504.018 157.386C504.683 156.955 505.504 156.739 506.482 156.739C507.385 156.739 508.172 156.932 508.842 157.318C509.518 157.705 510.041 158.264 510.411 158.997C510.786 159.73 510.97 160.619 510.964 161.665V170H507.879V162.142C507.879 161.267 507.652 160.582 507.197 160.088C506.749 159.594 506.126 159.347 505.331 159.347C504.791 159.347 504.311 159.466 503.891 159.705C503.476 159.937 503.149 160.276 502.911 160.719C502.678 161.162 502.561 161.699 502.561 162.33ZM517.186 162.33V170H514.101V156.909H517.05V159.134H517.203C517.504 158.401 517.984 157.818 518.643 157.386C519.308 156.955 520.129 156.739 521.107 156.739C522.01 156.739 522.797 156.932 523.467 157.318C524.143 157.705 524.666 158.264 525.036 158.997C525.411 159.73 525.595 160.619 525.589 161.665V170H522.504V162.142C522.504 161.267 522.277 160.582 521.822 160.088C521.374 159.594 520.751 159.347 519.956 159.347C519.416 159.347 518.936 159.466 518.516 159.705C518.101 159.937 517.774 160.276 517.536 160.719C517.303 161.162 517.186 161.699 517.186 162.33ZM534.436 170.256C533.158 170.256 532.05 169.974 531.112 169.412C530.175 168.849 529.447 168.062 528.93 167.051C528.419 166.04 528.163 164.858 528.163 163.506C528.163 162.153 528.419 160.969 528.93 159.952C529.447 158.935 530.175 158.145 531.112 157.582C532.05 157.02 533.158 156.739 534.436 156.739C535.714 156.739 536.822 157.02 537.76 157.582C538.697 158.145 539.422 158.935 539.933 159.952C540.45 160.969 540.709 162.153 540.709 163.506C540.709 164.858 540.45 166.04 539.933 167.051C539.422 168.062 538.697 168.849 537.76 169.412C536.822 169.974 535.714 170.256 534.436 170.256ZM534.453 167.784C535.146 167.784 535.726 167.594 536.192 167.213C536.658 166.827 537.004 166.31 537.232 165.662C537.464 165.014 537.581 164.293 537.581 163.497C537.581 162.696 537.464 161.972 537.232 161.324C537.004 160.67 536.658 160.151 536.192 159.764C535.726 159.378 535.146 159.185 534.453 159.185C533.743 159.185 533.152 159.378 532.68 159.764C532.214 160.151 531.865 160.67 531.632 161.324C531.405 161.972 531.291 162.696 531.291 163.497C531.291 164.293 531.405 165.014 531.632 165.662C531.865 166.31 532.214 166.827 532.68 167.213C533.152 167.594 533.743 167.784 534.453 167.784ZM554.575 156.909L549.913 170H546.504L541.842 156.909H545.132L548.141 166.634H548.277L551.294 156.909H554.575ZM560.102 170.264C559.273 170.264 558.526 170.116 557.861 169.821C557.202 169.52 556.679 169.077 556.293 168.491C555.912 167.906 555.722 167.185 555.722 166.327C555.722 165.588 555.858 164.977 556.131 164.494C556.403 164.011 556.776 163.625 557.247 163.335C557.719 163.045 558.25 162.827 558.841 162.679C559.438 162.526 560.054 162.415 560.69 162.347C561.457 162.267 562.08 162.196 562.557 162.134C563.034 162.065 563.381 161.963 563.597 161.827C563.818 161.685 563.929 161.466 563.929 161.17V161.119C563.929 160.477 563.739 159.98 563.358 159.628C562.977 159.276 562.429 159.099 561.713 159.099C560.957 159.099 560.358 159.264 559.915 159.594C559.477 159.923 559.182 160.312 559.028 160.761L556.148 160.352C556.375 159.557 556.75 158.892 557.273 158.358C557.795 157.818 558.435 157.415 559.19 157.148C559.946 156.875 560.781 156.739 561.696 156.739C562.327 156.739 562.955 156.812 563.58 156.96C564.205 157.108 564.776 157.352 565.293 157.693C565.81 158.028 566.224 158.486 566.537 159.065C566.855 159.645 567.014 160.369 567.014 161.239V170H564.048V168.202H563.946C563.759 168.565 563.494 168.906 563.153 169.224C562.818 169.537 562.395 169.79 561.884 169.983C561.378 170.17 560.784 170.264 560.102 170.264ZM560.903 167.997C561.523 167.997 562.06 167.875 562.514 167.631C562.969 167.381 563.318 167.051 563.562 166.642C563.812 166.233 563.938 165.787 563.938 165.304V163.761C563.841 163.841 563.676 163.915 563.443 163.983C563.216 164.051 562.96 164.111 562.676 164.162C562.392 164.213 562.111 164.259 561.832 164.298C561.554 164.338 561.313 164.372 561.108 164.401C560.648 164.463 560.236 164.565 559.872 164.707C559.509 164.849 559.222 165.048 559.011 165.304C558.801 165.554 558.696 165.878 558.696 166.276C558.696 166.844 558.903 167.273 559.318 167.562C559.733 167.852 560.261 167.997 560.903 167.997ZM576.653 156.909V159.295H569.128V156.909H576.653ZM570.986 153.773H574.071V166.062C574.071 166.477 574.134 166.795 574.259 167.017C574.389 167.233 574.56 167.381 574.77 167.46C574.98 167.54 575.213 167.58 575.469 167.58C575.662 167.58 575.838 167.565 575.997 167.537C576.162 167.509 576.287 167.483 576.372 167.46L576.892 169.872C576.727 169.929 576.491 169.991 576.185 170.06C575.884 170.128 575.514 170.168 575.077 170.179C574.304 170.202 573.608 170.085 572.989 169.83C572.369 169.568 571.878 169.165 571.514 168.619C571.156 168.074 570.98 167.392 570.986 166.574V153.773ZM584.888 170.256C583.576 170.256 582.442 169.983 581.488 169.438C580.539 168.886 579.809 168.108 579.298 167.102C578.786 166.091 578.531 164.901 578.531 163.531C578.531 162.185 578.786 161.003 579.298 159.986C579.815 158.963 580.536 158.168 581.462 157.599C582.388 157.026 583.477 156.739 584.727 156.739C585.533 156.739 586.295 156.869 587.011 157.131C587.732 157.386 588.369 157.784 588.92 158.324C589.477 158.864 589.914 159.551 590.232 160.386C590.55 161.216 590.71 162.205 590.71 163.352V164.298H579.979V162.219H587.752C587.746 161.628 587.619 161.102 587.369 160.642C587.119 160.176 586.769 159.81 586.32 159.543C585.877 159.276 585.36 159.142 584.769 159.142C584.138 159.142 583.585 159.295 583.107 159.602C582.63 159.903 582.258 160.301 581.991 160.795C581.729 161.284 581.596 161.821 581.59 162.406V164.222C581.59 164.983 581.729 165.636 582.008 166.182C582.286 166.722 582.675 167.136 583.175 167.426C583.675 167.71 584.261 167.852 584.931 167.852C585.38 167.852 585.786 167.79 586.15 167.665C586.513 167.534 586.829 167.344 587.096 167.094C587.363 166.844 587.565 166.534 587.701 166.165L590.582 166.489C590.4 167.25 590.053 167.915 589.542 168.483C589.036 169.045 588.388 169.483 587.599 169.795C586.809 170.102 585.906 170.256 584.888 170.256ZM595.22 170.188C594.703 170.188 594.26 170.006 593.891 169.642C593.521 169.278 593.339 168.835 593.345 168.312C593.339 167.801 593.521 167.364 593.891 167C594.26 166.636 594.703 166.455 595.22 166.455C595.72 166.455 596.155 166.636 596.524 167C596.899 167.364 597.089 167.801 597.095 168.312C597.089 168.659 596.999 168.974 596.822 169.259C596.652 169.543 596.425 169.77 596.141 169.94C595.862 170.105 595.555 170.188 595.22 170.188Z" fill="#6EC8FB"/>
<path d="M856.097 170V152.545H867.449V155.196H859.259V159.935H866.861V162.585H859.259V167.349H867.517V170H856.097ZM870.538 170V156.909H873.487V159.134H873.641C873.913 158.384 874.365 157.798 874.996 157.378C875.626 156.952 876.379 156.739 877.254 156.739C878.141 156.739 878.888 156.955 879.496 157.386C880.109 157.812 880.541 158.395 880.791 159.134H880.928C881.217 158.406 881.706 157.827 882.393 157.395C883.087 156.957 883.908 156.739 884.857 156.739C886.061 156.739 887.044 157.119 887.805 157.881C888.567 158.642 888.947 159.753 888.947 161.213V170H885.854V161.69C885.854 160.878 885.638 160.284 885.206 159.909C884.774 159.528 884.246 159.338 883.621 159.338C882.876 159.338 882.294 159.571 881.874 160.037C881.459 160.497 881.251 161.097 881.251 161.835V170H878.226V161.562C878.226 160.886 878.021 160.347 877.612 159.943C877.209 159.54 876.68 159.338 876.027 159.338C875.584 159.338 875.18 159.452 874.817 159.679C874.453 159.901 874.163 160.216 873.947 160.625C873.732 161.028 873.624 161.5 873.624 162.04V170H870.538ZM892.077 174.909V156.909H895.112V159.074H895.29C895.45 158.756 895.674 158.418 895.964 158.06C896.254 157.696 896.646 157.386 897.14 157.131C897.634 156.869 898.265 156.739 899.032 156.739C900.043 156.739 900.955 156.997 901.768 157.514C902.586 158.026 903.234 158.784 903.711 159.79C904.194 160.79 904.435 162.017 904.435 163.472C904.435 164.909 904.2 166.131 903.728 167.136C903.256 168.142 902.614 168.909 901.802 169.438C900.989 169.966 900.069 170.23 899.04 170.23C898.29 170.23 897.668 170.105 897.174 169.855C896.68 169.605 896.282 169.304 895.981 168.952C895.685 168.594 895.455 168.256 895.29 167.938H895.163V174.909H892.077ZM895.103 163.455C895.103 164.301 895.222 165.043 895.461 165.679C895.705 166.315 896.055 166.812 896.509 167.17C896.969 167.523 897.526 167.699 898.18 167.699C898.862 167.699 899.433 167.517 899.893 167.153C900.353 166.784 900.7 166.281 900.933 165.645C901.171 165.003 901.29 164.273 901.29 163.455C901.29 162.642 901.174 161.92 900.941 161.29C900.708 160.659 900.362 160.165 899.901 159.807C899.441 159.449 898.867 159.27 898.18 159.27C897.521 159.27 896.961 159.443 896.501 159.79C896.04 160.136 895.691 160.622 895.452 161.247C895.219 161.872 895.103 162.608 895.103 163.455ZM912.788 170.256C911.509 170.256 910.401 169.974 909.464 169.412C908.526 168.849 907.799 168.062 907.282 167.051C906.771 166.04 906.515 164.858 906.515 163.506C906.515 162.153 906.771 160.969 907.282 159.952C907.799 158.935 908.526 158.145 909.464 157.582C910.401 157.02 911.509 156.739 912.788 156.739C914.066 156.739 915.174 157.02 916.112 157.582C917.049 158.145 917.773 158.935 918.285 159.952C918.802 160.969 919.06 162.153 919.06 163.506C919.06 164.858 918.802 166.04 918.285 167.051C917.773 168.062 917.049 168.849 916.112 169.412C915.174 169.974 914.066 170.256 912.788 170.256ZM912.805 167.784C913.498 167.784 914.077 167.594 914.543 167.213C915.009 166.827 915.356 166.31 915.583 165.662C915.816 165.014 915.933 164.293 915.933 163.497C915.933 162.696 915.816 161.972 915.583 161.324C915.356 160.67 915.009 160.151 914.543 159.764C914.077 159.378 913.498 159.185 912.805 159.185C912.094 159.185 911.504 159.378 911.032 159.764C910.566 160.151 910.217 160.67 909.984 161.324C909.756 161.972 909.643 162.696 909.643 163.497C909.643 164.293 909.756 165.014 909.984 165.662C910.217 166.31 910.566 166.827 911.032 167.213C911.504 167.594 912.094 167.784 912.805 167.784ZM924.006 170L920.307 156.909H923.452L925.753 166.114H925.872L928.224 156.909H931.335L933.688 166.062H933.815L936.082 156.909H939.236L935.528 170H932.315L929.861 161.153H929.682L927.227 170H924.006ZM946.81 170.256C945.498 170.256 944.364 169.983 943.41 169.438C942.461 168.886 941.731 168.108 941.219 167.102C940.708 166.091 940.452 164.901 940.452 163.531C940.452 162.185 940.708 161.003 941.219 159.986C941.737 158.963 942.458 158.168 943.384 157.599C944.31 157.026 945.398 156.739 946.648 156.739C947.455 156.739 948.217 156.869 948.933 157.131C949.654 157.386 950.29 157.784 950.842 158.324C951.398 158.864 951.836 159.551 952.154 160.386C952.472 161.216 952.631 162.205 952.631 163.352V164.298H941.901V162.219H949.674C949.668 161.628 949.54 161.102 949.29 160.642C949.04 160.176 948.691 159.81 948.242 159.543C947.799 159.276 947.282 159.142 946.691 159.142C946.06 159.142 945.506 159.295 945.029 159.602C944.552 159.903 944.18 160.301 943.913 160.795C943.651 161.284 943.518 161.821 943.512 162.406V164.222C943.512 164.983 943.651 165.636 943.93 166.182C944.208 166.722 944.597 167.136 945.097 167.426C945.597 167.71 946.183 167.852 946.853 167.852C947.302 167.852 947.708 167.79 948.072 167.665C948.435 167.534 948.751 167.344 949.018 167.094C949.285 166.844 949.487 166.534 949.623 166.165L952.504 166.489C952.322 167.25 951.975 167.915 951.464 168.483C950.958 169.045 950.31 169.483 949.521 169.795C948.731 170.102 947.827 170.256 946.81 170.256ZM955.241 170V156.909H958.233V159.091H958.369C958.608 158.335 959.017 157.753 959.597 157.344C960.182 156.929 960.849 156.722 961.599 156.722C961.77 156.722 961.96 156.73 962.17 156.747C962.386 156.759 962.565 156.778 962.707 156.807V159.645C962.577 159.599 962.369 159.56 962.085 159.526C961.807 159.486 961.537 159.466 961.276 159.466C960.713 159.466 960.207 159.588 959.759 159.832C959.315 160.071 958.966 160.403 958.71 160.83C958.455 161.256 958.327 161.747 958.327 162.304V170H955.241ZM975.926 170.256C974.733 170.256 973.707 170.04 972.849 169.608C971.991 169.176 971.33 168.594 970.864 167.861C970.403 167.122 970.173 166.29 970.173 165.364C970.173 164.665 970.315 164.045 970.599 163.506C970.889 162.966 971.287 162.466 971.793 162.006C972.304 161.545 972.895 161.088 973.565 160.634L976.659 158.528C977.114 158.233 977.457 157.92 977.69 157.591C977.929 157.261 978.048 156.875 978.048 156.432C978.048 156.057 977.889 155.702 977.571 155.366C977.259 155.031 976.827 154.864 976.276 154.864C975.906 154.864 975.58 154.952 975.295 155.128C975.017 155.298 974.798 155.523 974.639 155.801C974.486 156.08 974.409 156.375 974.409 156.688C974.409 157.068 974.514 157.455 974.724 157.847C974.94 158.239 975.219 158.645 975.56 159.065C975.906 159.486 976.276 159.932 976.668 160.403L984.858 170H981.517L974.716 162.21C974.21 161.619 973.722 161.037 973.25 160.463C972.784 159.889 972.401 159.293 972.099 158.673C971.804 158.048 971.656 157.372 971.656 156.645C971.656 155.821 971.847 155.085 972.227 154.438C972.608 153.784 973.139 153.27 973.821 152.895C974.509 152.52 975.313 152.332 976.233 152.332C977.153 152.332 977.943 152.514 978.602 152.878C979.261 153.241 979.77 153.724 980.128 154.327C980.486 154.929 980.665 155.585 980.665 156.295C980.665 157.119 980.46 157.858 980.051 158.511C979.642 159.159 979.074 159.747 978.347 160.276L974.818 162.858C974.239 163.278 973.824 163.705 973.574 164.136C973.324 164.562 973.199 164.926 973.199 165.227C973.199 165.687 973.315 166.105 973.548 166.48C973.781 166.855 974.108 167.156 974.528 167.384C974.955 167.605 975.452 167.716 976.02 167.716C976.645 167.716 977.261 167.577 977.869 167.298C978.477 167.014 979.031 166.611 979.531 166.088C980.031 165.565 980.429 164.94 980.724 164.213C981.02 163.48 981.168 162.668 981.168 161.776H983.818C983.818 162.878 983.696 163.838 983.452 164.656C983.207 165.469 982.892 166.156 982.506 166.719C982.119 167.276 981.71 167.722 981.278 168.057C981.142 168.153 981.011 168.25 980.886 168.347C980.761 168.443 980.631 168.54 980.494 168.636C979.881 169.193 979.162 169.602 978.338 169.864C977.52 170.125 976.716 170.256 975.926 170.256ZM992.714 170V152.545H1004.07V155.196H995.876V159.935H1003.48V162.585H995.876V167.349H1004.13V170H992.714ZM1012.01 170.23C1010.99 170.23 1010.06 169.966 1009.25 169.438C1008.44 168.909 1007.8 168.142 1007.33 167.136C1006.85 166.131 1006.62 164.909 1006.62 163.472C1006.62 162.017 1006.86 160.79 1007.33 159.79C1007.82 158.784 1008.47 158.026 1009.29 157.514C1010.1 156.997 1011.02 156.739 1012.02 156.739C1012.79 156.739 1013.42 156.869 1013.91 157.131C1014.41 157.386 1014.8 157.696 1015.09 158.06C1015.38 158.418 1015.6 158.756 1015.76 159.074H1015.89V152.545H1018.99V170H1015.95V167.938H1015.76C1015.6 168.256 1015.37 168.594 1015.07 168.952C1014.77 169.304 1014.37 169.605 1013.88 169.855C1013.39 170.105 1012.76 170.23 1012.01 170.23ZM1012.87 167.699C1013.53 167.699 1014.08 167.523 1014.54 167.17C1015 166.812 1015.35 166.315 1015.59 165.679C1015.83 165.043 1015.95 164.301 1015.95 163.455C1015.95 162.608 1015.83 161.872 1015.59 161.247C1015.36 160.622 1015.01 160.136 1014.55 159.79C1014.1 159.443 1013.54 159.27 1012.87 159.27C1012.19 159.27 1011.61 159.449 1011.15 159.807C1010.69 160.165 1010.35 160.659 1010.11 161.29C1009.88 161.92 1009.76 162.642 1009.76 163.455C1009.76 164.273 1009.88 165.003 1010.11 165.645C1010.35 166.281 1010.7 166.784 1011.16 167.153C1011.63 167.517 1012.2 167.699 1012.87 167.699ZM1030.62 164.494V156.909H1033.7V170H1030.71V167.673H1030.57C1030.28 168.406 1029.79 169.006 1029.12 169.472C1028.45 169.937 1027.62 170.17 1026.64 170.17C1025.78 170.17 1025.02 169.98 1024.36 169.599C1023.71 169.213 1023.2 168.653 1022.83 167.92C1022.46 167.182 1022.27 166.29 1022.27 165.244V156.909H1025.36V164.767C1025.36 165.597 1025.59 166.256 1026.04 166.744C1026.49 167.233 1027.09 167.477 1027.83 167.477C1028.28 167.477 1028.72 167.366 1029.15 167.145C1029.58 166.923 1029.93 166.594 1030.2 166.156C1030.48 165.713 1030.62 165.159 1030.62 164.494ZM1042.58 170.256C1041.28 170.256 1040.16 169.969 1039.22 169.395C1038.29 168.821 1037.57 168.028 1037.06 167.017C1036.56 166 1036.31 164.83 1036.31 163.506C1036.31 162.176 1036.57 161.003 1037.08 159.986C1037.59 158.963 1038.31 158.168 1039.24 157.599C1040.18 157.026 1041.29 156.739 1042.57 156.739C1043.63 156.739 1044.57 156.935 1045.39 157.327C1046.21 157.713 1046.87 158.261 1047.36 158.972C1047.85 159.676 1048.12 160.5 1048.19 161.443H1045.24C1045.12 160.812 1044.84 160.287 1044.39 159.866C1043.95 159.44 1043.35 159.227 1042.61 159.227C1041.98 159.227 1041.43 159.398 1040.95 159.739C1040.47 160.074 1040.1 160.557 1039.83 161.188C1039.57 161.818 1039.44 162.574 1039.44 163.455C1039.44 164.347 1039.57 165.114 1039.83 165.756C1040.09 166.392 1040.46 166.884 1040.93 167.23C1041.41 167.571 1041.97 167.741 1042.61 167.741C1043.06 167.741 1043.47 167.656 1043.83 167.486C1044.19 167.31 1044.5 167.057 1044.74 166.727C1044.99 166.398 1045.15 165.997 1045.24 165.526H1048.19C1048.12 166.452 1047.85 167.273 1047.37 167.989C1046.9 168.699 1046.26 169.256 1045.45 169.659C1044.64 170.057 1043.68 170.256 1042.58 170.256ZM1054.49 170.264C1053.66 170.264 1052.92 170.116 1052.25 169.821C1051.59 169.52 1051.07 169.077 1050.68 168.491C1050.3 167.906 1050.11 167.185 1050.11 166.327C1050.11 165.588 1050.25 164.977 1050.52 164.494C1050.79 164.011 1051.17 163.625 1051.64 163.335C1052.11 163.045 1052.64 162.827 1053.23 162.679C1053.83 162.526 1054.44 162.415 1055.08 162.347C1055.85 162.267 1056.47 162.196 1056.95 162.134C1057.42 162.065 1057.77 161.963 1057.99 161.827C1058.21 161.685 1058.32 161.466 1058.32 161.17V161.119C1058.32 160.477 1058.13 159.98 1057.75 159.628C1057.37 159.276 1056.82 159.099 1056.1 159.099C1055.35 159.099 1054.75 159.264 1054.31 159.594C1053.87 159.923 1053.57 160.312 1053.42 160.761L1050.54 160.352C1050.77 159.557 1051.14 158.892 1051.66 158.358C1052.19 157.818 1052.83 157.415 1053.58 157.148C1054.34 156.875 1055.17 156.739 1056.09 156.739C1056.72 156.739 1057.35 156.812 1057.97 156.96C1058.6 157.108 1059.17 157.352 1059.68 157.693C1060.2 158.028 1060.62 158.486 1060.93 159.065C1061.25 159.645 1061.4 160.369 1061.4 161.239V170H1058.44V168.202H1058.34C1058.15 168.565 1057.88 168.906 1057.54 169.224C1057.21 169.537 1056.79 169.79 1056.27 169.983C1055.77 170.17 1055.17 170.264 1054.49 170.264ZM1055.29 167.997C1055.91 167.997 1056.45 167.875 1056.9 167.631C1057.36 167.381 1057.71 167.051 1057.95 166.642C1058.2 166.233 1058.33 165.787 1058.33 165.304V163.761C1058.23 163.841 1058.07 163.915 1057.83 163.983C1057.61 164.051 1057.35 164.111 1057.07 164.162C1056.78 164.213 1056.5 164.259 1056.22 164.298C1055.94 164.338 1055.7 164.372 1055.5 164.401C1055.04 164.463 1054.63 164.565 1054.26 164.707C1053.9 164.849 1053.61 165.048 1053.4 165.304C1053.19 165.554 1053.09 165.878 1053.09 166.276C1053.09 166.844 1053.29 167.273 1053.71 167.562C1054.12 167.852 1054.65 167.997 1055.29 167.997ZM1071.04 156.909V159.295H1063.52V156.909H1071.04ZM1065.38 153.773H1068.46V166.062C1068.46 166.477 1068.52 166.795 1068.65 167.017C1068.78 167.233 1068.95 167.381 1069.16 167.46C1069.37 167.54 1069.6 167.58 1069.86 167.58C1070.05 167.58 1070.23 167.565 1070.39 167.537C1070.55 167.509 1070.68 167.483 1070.76 167.46L1071.28 169.872C1071.12 169.929 1070.88 169.991 1070.58 170.06C1070.27 170.128 1069.9 170.168 1069.47 170.179C1068.69 170.202 1068 170.085 1067.38 169.83C1066.76 169.568 1066.27 169.165 1065.9 168.619C1065.55 168.074 1065.37 167.392 1065.38 166.574V153.773ZM1079.28 170.256C1077.97 170.256 1076.83 169.983 1075.88 169.438C1074.93 168.886 1074.2 168.108 1073.69 167.102C1073.18 166.091 1072.92 164.901 1072.92 163.531C1072.92 162.185 1073.18 161.003 1073.69 159.986C1074.21 158.963 1074.93 158.168 1075.85 157.599C1076.78 157.026 1077.87 156.739 1079.12 156.739C1079.92 156.739 1080.69 156.869 1081.4 157.131C1082.12 157.386 1082.76 157.784 1083.31 158.324C1083.87 158.864 1084.3 159.551 1084.62 160.386C1084.94 161.216 1085.1 162.205 1085.1 163.352V164.298H1074.37V162.219H1082.14C1082.14 161.628 1082.01 161.102 1081.76 160.642C1081.51 160.176 1081.16 159.81 1080.71 159.543C1080.27 159.276 1079.75 159.142 1079.16 159.142C1078.53 159.142 1077.98 159.295 1077.5 159.602C1077.02 159.903 1076.65 160.301 1076.38 160.795C1076.12 161.284 1075.99 161.821 1075.98 162.406V164.222C1075.98 164.983 1076.12 165.636 1076.4 166.182C1076.68 166.722 1077.07 167.136 1077.57 167.426C1078.07 167.71 1078.65 167.852 1079.32 167.852C1079.77 167.852 1080.18 167.79 1080.54 167.665C1080.9 167.534 1081.22 167.344 1081.49 167.094C1081.75 166.844 1081.96 166.534 1082.09 166.165L1084.97 166.489C1084.79 167.25 1084.44 167.915 1083.93 168.483C1083.43 169.045 1082.78 169.483 1081.99 169.795C1081.2 170.102 1080.3 170.256 1079.28 170.256Z" fill="#6EC8FB"/>
</svg>
